<svg xmlns="http://www.w3.org/2000/svg" viewBox="0 0 64 64">
  <defs>
    <linearGradient id="g" x1="0" y1="0" x2="1" y2="1">
      <stop offset="0%" stop-color="#4f46e5"/>
      <stop offset="100%" stop-color="#06b6d4"/>
    </linearGradient>
  </defs>
  <rect x="4" y="4" width="56" height="56" rx="14" fill="url(#g)"/>
  <g fill="#ffffff">
    <path d="M32 14c-9.941 0-18 8.059-18 18s8.059 18 18 18 18-8.059 18-18S41.941 14 32 14zm0 6c6.627 0 12 5.373 12 12s-5.373 12-12 12-12-5.373-12-12 5.373-12 12-12z" opacity=".25"/>
    <path d="M32 20l11 24h-6l-2-5.333h-6L27 44h-6l11-24zm0 8l-2.25 5h4.5L32 28z"/>
  </g>
</svg>
